HIERARCHY
ROOT Hips
{
	OFFSET 0.000000 0.000000 0.000000
	CHANNELS 6 Xposition Yposition Zposition Xrotation Yrotation Zrotation
	JOINT LeftUpLeg_virtual
	{
		OFFSET 0.000000 0.000000 0.000000
		CHANNELS 3 Xrotation Yrotation Zrotation
		JOINT LeftUpLeg
		{
			OFFSET 11.394100 -6.187798 -0.413800
			CHANNELS 3 Xrotation Yrotation Zrotation
			JOINT LeftLeg
			{
				OFFSET 0.430247 -32.302673 3.732800
				CHANNELS 3 Xrotation Yrotation Zrotation
				JOINT LeftFoot
				{
					OFFSET -0.430247 -48.264931 -6.423300
					CHANNELS 3 Xrotation Yrotation Zrotation
					JOINT LeftToeBase
					{
						OFFSET 4.230900 -16.068199 23.438400
						CHANNELS 3 Xrotation Yrotation Zrotation
						JOINT LeftToe_End
						{
							OFFSET 4.510700 0.695400 19.974600
							CHANNELS 3 Xrotation Yrotation Zrotation
							End Site
							{
								OFFSET 0 0 0
							}
						}
					}
				}
			}
		}
	}
	JOINT RightUpLeg_virtual
	{
		OFFSET 0.000000 0.000000 0.000000
		CHANNELS 3 Xrotation Yrotation Zrotation
		JOINT RightUpLeg
		{
			OFFSET -11.333700 -6.187798 -0.413800
			CHANNELS 3 Xrotation Yrotation Zrotation
			JOINT RightLeg
			{
				OFFSET -0.430392 -32.302628 3.733000
				CHANNELS 3 Xrotation Yrotation Zrotation
				JOINT RightFoot
				{
					OFFSET 0.430392 -48.264973 -6.423500
					CHANNELS 3 Xrotation Yrotation Zrotation
					JOINT RightToeBase
					{
						OFFSET -4.230900 -16.068199 23.438400
						CHANNELS 3 Xrotation Yrotation Zrotation
						JOINT RightToe_End
						{
							OFFSET -4.510700 0.695400 19.974600
							CHANNELS 3 Xrotation Yrotation Zrotation
							End Site
							{
								OFFSET 0 0 0
							}
						}
					}
				}
			}
		}
	}
	JOINT Spine_virtual
	{
		OFFSET 0.000000 0.000000 0.000000
		CHANNELS 3 Xrotation Yrotation Zrotation
		JOINT Spine
		{
			OFFSET -0.002400 12.777504 0.315300
			CHANNELS 3 Xrotation Yrotation Zrotation
			JOINT Spine1
			{
				OFFSET -0.002067 5.816869 0.032633
				CHANNELS 3 Xrotation Yrotation Zrotation
				JOINT Spine1_split
				{
					OFFSET -0.002067 5.816869 0.032633
					CHANNELS 3 Xrotation Yrotation Zrotation
					JOINT Spine2
					{
						OFFSET -0.002067 5.816869 0.032633
						CHANNELS 3 Xrotation Yrotation Zrotation
						JOINT Neck_virtual
						{
							OFFSET 0.000000 0.000000 0.000000
							CHANNELS 3 Xrotation Yrotation Zrotation
							JOINT Neck
							{
								OFFSET -0.003700 21.199493 -0.826900
								CHANNELS 3 Xrotation Yrotation Zrotation
								JOINT Head
								{
									OFFSET 0.000000 20.442200 4.834800
									CHANNELS 3 Xrotation Yrotation Zrotation
									JOINT HeadTop_End
									{
										OFFSET 0.000000 34.668396 4.968400
										CHANNELS 3 Xrotation Yrotation Zrotation
										End Site
										{
											OFFSET 0 0 0
										}
									}
								}
							}
						}
						JOINT LeftShoulder_virtual
						{
							OFFSET 0.000000 0.000000 0.000000
							CHANNELS 3 Xrotation Yrotation Zrotation
							JOINT LeftShoulder
							{
								OFFSET 3.288150 8.794197 -1.372250
								CHANNELS 3 Xrotation Yrotation Zrotation
								JOINT LeftShoulder_split
								{
									OFFSET 3.288150 8.794197 -1.372250
									CHANNELS 3 Xrotation Yrotation Zrotation
									JOINT LeftArm
									{
										OFFSET 11.953299 -2.279007 -0.146200
										CHANNELS 3 Xrotation Yrotation Zrotation
										JOINT LeftForeArm
										{
											OFFSET 18.448900 0.000000 0.000000
											CHANNELS 3 Xrotation Yrotation Zrotation
											JOINT LeftHand
											{
												OFFSET 29.527798 0.000000 0.000000
												CHANNELS 3 Xrotation Yrotation Zrotation
												End Site
												{
													OFFSET 0 0 0
												}
											}
										}
									}
								}
							}
						}
						JOINT RightShoulder_virtual
						{
							OFFSET 0.000000 0.000000 0.000000
							CHANNELS 3 Xrotation Yrotation Zrotation
							JOINT RightShoulder
							{
								OFFSET -3.249400 8.794197 -1.372250
								CHANNELS 3 Xrotation Yrotation Zrotation
								JOINT RightShoulder_split
								{
									OFFSET -3.249400 8.794197 -1.372250
									CHANNELS 3 Xrotation Yrotation Zrotation
									JOINT RightArm
									{
										OFFSET -11.953299 -2.279007 -0.146200
										CHANNELS 3 Xrotation Yrotation Zrotation
										JOINT RightForeArm
										{
											OFFSET -18.448900 0.000000 0.000000
											CHANNELS 3 Xrotation Yrotation Zrotation
											JOINT RightHand
											{
												OFFSET -29.527802 0.000000 0.000000
												CHANNELS 3 Xrotation Yrotation Zrotation
												End Site
												{
													OFFSET 0 0 0
												}
											}
										}
									}
								}
							}
						}
					}
				}
			}
		}
	}
}
MOTION
Frames: 4
Frame Time: 0.03333333
0.339097 82.811356 4.507378 0.000000 0.000000 0.000000 -2.010975 -46.334603 3.104397 -37.607886 11.305067 18.568248 55.417109 -7.995206 -1.085705 -23.604451 -10.240353 -8.969312 -2.358205 -0.881205 0.995537 0.000000 0.000000 0.000000 -3.285271 -44.467458 3.647593 -26.986197 -10.156677 -31.244185 56.481013 -6.964077 -9.358116 -18.791312 -7.652841 26.087247 -3.890705 -0.113766 -0.286691 0.000000 0.000000 0.000000 -1.430800 -46.624767 4.244192 9.013772 11.905587 -2.625755 0.544092 3.926447 -1.714776 0.419987 -1.838974 1.295295 0.000000 0.000000 0.000000 1.784706 4.047239 -1.723843 -8.665332 11.773917 3.907323 6.375001 17.131870 0.859319 0.000000 0.000000 0.000000 1.557071 4.115774 -1.357566 0.747291 0.202778 -4.479003 -0.562336 -3.905899 1.262508 6.242414 1.241748 -38.921898 178.368778 -49.323579 178.902339 0.000000 0.000000 0.000000 1.357965 3.746478 -1.594202 1.474563 13.192401 -4.683064 -6.829000 -1.111871 2.656369 -59.977407 20.337843 64.699001 -166.065463 79.093044 164.867967 0.000000 0.000000 0.000000 
0.815807 82.862717 4.412403 0.000000 0.000000 0.000000 -1.883410 -51.397252 2.627897 -35.769472 11.183899 18.976770 55.235040 -6.824845 -2.105577 -26.169115 -6.602877 -8.191853 -2.710140 -0.939632 1.450678 0.000000 0.000000 0.000000 -2.963655 -48.802067 3.339224 -29.653072 -6.340413 -29.993136 57.059936 -5.447364 -10.325258 -18.477161 -5.635914 26.452264 -3.740602 0.137054 -0.771160 0.000000 0.000000 0.000000 -0.914057 -50.440069 4.204564 9.209888 11.343764 -1.794254 0.879944 3.800135 -1.665962 0.463581 -1.659330 1.207668 0.000000 0.000000 0.000000 2.138826 3.957493 -1.641841 -8.886629 12.858169 3.619133 5.470954 20.215980 -0.887862 0.000000 0.000000 0.000000 1.631512 4.028316 -1.246225 0.961021 0.694242 -2.485560 0.167447 -4.493800 0.340693 2.130641 5.613787 -33.953120 178.780311 -53.852961 179.169522 0.000000 0.000000 0.000000 1.412288 3.642804 -1.467475 1.223615 10.663975 -2.761197 -5.992265 -1.272126 2.980547 -60.942670 23.096898 69.921207 -172.364564 74.431126 171.036338 0.000000 0.000000 0.000000 
1.143742 82.748444 4.302219 0.000000 0.000000 0.000000 -1.684839 -56.499076 1.817687 -34.398038 10.180112 19.562220 55.990442 -5.713344 -2.393783 -28.482229 -3.062670 -7.408120 -2.804896 -0.927257 1.540511 0.000000 0.000000 0.000000 -2.700884 -52.921610 2.555732 -31.851207 -3.702603 -28.130721 56.835408 -4.172521 -11.108685 -18.507344 -3.926969 26.491923 -3.673441 0.472153 -1.201455 0.000000 0.000000 0.000000 -0.180603 -53.952583 3.725292 9.345958 10.257488 -1.164482 1.220287 3.218477 -1.612717 0.787430 -1.484044 1.085108 0.000000 0.000000 0.000000 2.455339 3.303247 -1.513081 -9.053210 14.277947 3.355382 4.903398 23.446626 -2.820221 0.000000 0.000000 0.000000 1.782784 3.373494 -1.171511 1.091715 1.044213 -0.135407 0.152603 -3.150691 -0.570027 -6.596094 6.000592 -26.470806 178.720588 -66.083685 179.159578 0.000000 0.000000 0.000000 1.549623 3.035597 -1.442580 0.985810 9.039502 -1.186842 -5.328968 -1.997766 2.954732 -61.342011 25.948129 74.288211 -176.183268 70.266486 174.583911 0.000000 0.000000 0.000000 
1.290696 82.593575 3.990128 0.000000 0.000000 0.000000 -1.655546 -60.247719 0.685423 -33.869870 8.411185 20.190282 57.430184 -5.053586 -1.873848 -30.040565 -0.227298 -7.136895 -2.581582 -0.841208 1.378455 0.000000 0.000000 0.000000 -2.750899 -55.985148 1.268040 -32.962490 -2.718663 -26.070900 55.884376 -3.562901 -11.552414 -19.042998 -2.877396 25.893462 -3.512802 0.809605 -1.268117 0.000000 0.000000 0.000000 0.432337 -56.477099 2.802900 9.404782 8.634477 -0.735025 1.451754 2.178214 -1.596728 1.170361 -1.179536 0.798607 0.000000 0.000000 0.000000 2.589659 2.099231 -1.461916 -8.989791 15.835061 3.203093 5.125642 26.474826 -4.805716 0.000000 0.000000 0.000000 2.162014 2.144731 -1.223955 1.181060 1.113435 2.024408 -0.829034 -0.411669 -1.292154 -17.491315 1.494484 -19.133409 172.618729 -85.803432 173.132946 0.000000 0.000000 0.000000 1.746245 1.907201 -1.537342 0.798415 8.328284 0.027453 -5.353672 -2.713394 2.462001 -59.670049 28.916316 77.376023 -178.604392 66.337140 176.620673 0.000000 0.000000 0.000000 
